<?xml version="1.0" encoding="iso-8859-1"?>
<!-- Generator: Adobe Illustrator 19.0.0, SVG Export Plug-In . SVG Version: 6.00 Build 0)  -->
<svg version="1.1" id="Capa_1" xmlns="http://www.w3.org/2000/svg" xmlns:xlink="http://www.w3.org/1999/xlink" x="0px" y="0px"
	 viewBox="0 0 308.838 308.838" style="enable-background:new 0 0 308.838 308.838;" xml:space="preserve">
<g>
	<g>
		<path d="M269.394,139.638c-0.4-0.8-0.8-1.2-1.2-1.6c-0.8-1.2-1.6-2-2.8-3.2c-1.2-1.2-2.8-2.4-4-3.2l-91.6-63.2l-92-63.6
			c-6-4.4-13.6-5.6-20.4-4.4s-13.2,5.2-17.2,11.2c-1.6,2.4-2.8,4.8-3.6,7.2c-0.8,2-1.2,4-1.2,6.4c0,0.4,0,1.2,0,1.6v127.6v127.2
			c0,7.6,3.2,14.4,8,19.2c4.4,4.8,11.2,8,18.8,8c3.2,0,6.4-0.4,9.2-1.6c2.8-0.8,5.2-2.4,7.6-4.4l90.8-62.8l91.2-63.2
			c0.4-0.4,1.2-0.8,1.6-1.2c5.6-4.4,9.2-10.4,10.4-16.8C274.194,152.438,272.994,145.238,269.394,139.638z M249.394,160.038
			l-92,63.6l-90.4,62.4c-0.4,0-0.8,0.4-0.8,0.4c-0.4,0.4-1.2,0.8-2,1.2c-0.8,0.4-1.2,0.4-2,0.4c-1.6,0-3.2-0.8-4.4-1.6
			c-1.2-1.2-1.6-2.8-1.6-4.4v-127.6h-0.4v-126c0-0.4,0-0.8,0-1.2v-0.4c0-0.4,0-0.8,0.4-1.2c0-0.4,0.4-0.8,0.4-1.2
			c0.4-0.4,0.4-0.4,0.4-0.8c0.8-1.2,2.4-2,3.6-2c1.6-0.4,2.8,0,4.4,0.8c0.4,0.4,0.8,0.4,1.2,0.8l91.2,63.2l91.6,63.2
			c0.4,0.4,0.8,0.4,0.8,0.8c0.4,0.4,0.4,0.8,0.8,0.8c0.8,1.6,1.2,3.2,1.2,4.8C251.394,157.638,250.594,159.238,249.394,160.038z"/>
	</g>
</g>
<g>
</g>
<g>
</g>
<g>
</g>
<g>
</g>
<g>
</g>
<g>
</g>
<g>
</g>
<g>
</g>
<g>
</g>
<g>
</g>
<g>
</g>
<g>
</g>
<g>
</g>
<g>
</g>
<g>
</g>
</svg>
